<svg xmlns="http://www.w3.org/2000/svg" viewBox="0 0 1024 1024" fill="#B08D3F">
  <path d="M498.885 321.055C502.39 287.958 507.793 255.333 508.682 221.922C508.979 210.725 509.222 199.297 510.301 188.161C510.364 189.948 510.194 190.919 511.243 192.343C512.588 193.155 512.607 193.226 514.098 193.638C515.025 199.359 515.394 206.219 515.696 212.031C517.168 240.435 519.755 268.682 523.796 296.841C524.944 304.84 525.494 312.999 526.747 321.008C582.376 327.56 626.539 350.355 661.546 394.677C688.166 428.379 697.49 459.84 701.614 501.839C717.836 504.377 734.122 506.494 750.454 508.188C757.544 508.936 767.705 509.434 774.288 510.364L775.431 513.917L701.99 522.186C700.647 535.18 699.324 545.606 696.121 558.384C685.974 598.717 663.061 634.69 630.799 660.936C597.5 688.009 567.501 698.262 525.674 703.44C519.755 749.745 515.839 792.668 513.678 839.392C512.234 840.196 512.215 840.321 510.517 840.454C508.753 818.166 508.891 794.95 506.907 772.818C504.865 750.04 501.556 726.304 498.868 703.505C455.83 697.681 426.649 688.066 392.295 659.979C358.701 632.527 335.524 594.398 326.622 551.938C324.477 541.871 323.591 533.377 322.577 523.124C298.824 520.346 274.346 516.426 250.268 513.603C251.359 512.403 252.373 511.212 253.423 509.976C276.163 507.17 300.2 505.794 322.983 502.544C324.1 462.211 340.164 423.276 365.187 391.918C391.724 358.892 428.459 335.594 469.646 325.667C480.055 323.185 488.269 322.26 498.885 321.055ZM329.917 501.858C352.893 498.466 375.91 495.346 398.96 492.501L425.744 489.156C429.301 488.705 436.375 487.988 439.621 487.286C446.887 486.321 454.828 485.094 462.059 484.33C455.044 473.271 445.605 461.706 437.594 451.143L398.196 398.733C426.666 418.139 452.959 440.374 482.097 459.86C483.986 445.768 498.72 333.287 497.335 329.083C496.081 328.614 495.834 328.865 494.47 329.187C446.159 334.33 401.86 358.423 371.288 396.182C345.649 427.845 333.546 461.721 329.917 501.858ZM728.751 513.419L731.168 512.442C724.871 511.519 713.841 511.511 707.128 511.401C692.611 511.198 678.092 511.09 663.574 511.076C614.952 510.908 565.762 511.524 517.247 510.972C526.339 520.974 534.709 528.19 543.668 537.522C562.805 534.67 582.303 532.937 601.499 530.293C640.256 524.956 679.158 520.58 717.85 514.825C721.3 514.314 725.301 513.659 728.751 513.419ZM543.15 565.831L540.267 588.88C537.564 607.68 535.563 626.482 533.194 645.315L526.44 696.248C538.112 694.207 548.711 692.481 560.131 689.221C601.168 677.736 636.942 652.355 661.339 617.416C677.689 594.171 688.496 567.539 692.543 539.506C693.102 535.634 694.872 527.06 694.33 523.565L693.918 523.278C664.566 526.728 635.231 530.327 605.916 534.076L579.905 537.532C574.486 538.282 566.962 539.554 561.676 539.667C570.965 553.131 582.613 567.965 592.501 581.236L616.369 612.8C619.864 617.432 623.054 622.357 626.636 626.891C618.072 621.067 610.008 614.47 601.671 608.312C586.105 596.814 570.195 585.82 554.815 574.07C551.249 571.345 546.978 568.075 543.15 565.831ZM423.21 601.917C426.309 599.601 429.057 597.367 432.039 594.898C448.712 581.915 464.672 568.17 481.122 555.04C480.685 551.91 480.276 548.777 479.893 545.64C476.248 545.487 472.609 545.212 468.983 544.817C465.254 550.241 460.875 555.781 456.63 560.835C445.308 574.313 434.587 588.507 423.21 601.917ZM512.024 804.376C512.634 801.174 512.528 797.729 512.466 794.484C512.606 789.887 512.475 785.065 512.421 780.449L512.599 778.506C512.675 775.704 512.254 773.678 511.819 770.931C511.488 774.23 511.382 775.558 511.544 778.915C511.536 781.331 511.426 784.958 511.587 787.261C511.566 789.413 511.161 803.618 511.93 804.49L512.024 804.376ZM527.371 328.293C531.317 357.116 534.117 386.756 537.932 415.625C539.552 427.89 541.143 448.56 543.499 459.931C559.17 449.64 574.325 437.568 589.241 426.247C601.539 416.913 614.18 407.71 626.625 398.541C613.922 415.219 601.341 431.99 588.883 448.852C582.474 457.449 570.254 473.196 565.541 482.016C574.015 483.044 582.289 484.577 590.614 485.636C625.271 491.142 659.992 496.233 694.77 500.909C692.803 488.778 691.646 477.75 688.564 465.798C677.76 424.151 652.683 387.616 617.704 362.563C597.845 348.132 575.249 337.908 551.299 332.517C546.592 331.473 541.851 330.588 537.084 329.866C534.867 329.529 529.073 328.859 527.371 328.293ZM554.038 544.263C551.049 544.536 548.062 544.824 545.076 545.127C544.867 548.778 544.684 552.431 544.527 556.085C551.019 560.575 557.916 566.584 564.143 571.652L596.762 598.139C597.834 599.026 600.645 601.608 601.724 601.85C598.229 597.601 555.502 544.925 554.038 544.263ZM470.354 481.242C473.368 480.721 476.364 480.159 479.405 479.836C479.779 476.621 480.135 473.404 480.473 470.185L445.672 441.495C441.939 438.394 428.753 427.092 425.105 425.351C430.035 432.882 440.102 444.67 446.232 452.004C453.852 461.121 462.574 472.559 470.354 481.242ZM511.045 261.193C509.827 267.724 509.028 277.374 508.153 284.266L501.277 342.177L484.893 479.924C493.886 488.421 503.93 498.894 513.247 506.646L512.489 350.132C512.16 327.258 511.711 304.279 511.783 281.399C511.798 276.502 511.194 266.485 511.72 262.428L511.045 261.193ZM398.267 627.025C403.956 618.657 410.918 609.993 417.045 601.781L461.239 543.142C450.533 542.091 438.482 539.805 427.65 538.279C407.247 535.549 386.861 532.69 366.493 529.703C355.99 528.099 340.503 525.177 330.254 524.244C332.566 570.804 355.557 617.297 390.12 648.296C423.184 677.95 455.493 690.215 498.66 696.382C497.226 688.658 496.252 679.642 495.432 671.724C492.462 643.022 488.065 614.044 485.375 585.365C484.569 578.642 483.823 571.579 482.824 564.911L432.755 601.727C421.408 610.13 409.859 619.081 398.267 627.025ZM293.111 511.627L294.11 512.449C299.278 512.273 306.954 512.724 312.56 512.741C331.767 512.809 350.974 512.999 370.179 513.313L510.345 514.694C502.808 506.683 487.811 493.681 479.286 486.174C465.486 489.372 441.863 491.628 426.874 493.646L336.749 505.855C322.19 507.805 307.605 509.213 293.111 511.627ZM484.983 544.646C486.419 551.941 487.334 562.59 488.242 570.261C490.28 586.871 492.174 603.499 493.923 620.142L509.085 749.619C509.879 755.892 510.495 762.684 511.542 768.856C512.311 766.55 512.103 728.556 512.174 723.758L513.655 598.04C513.992 582.146 514.147 566.041 514.108 550.147C514.088 541.905 514.883 525.99 513.814 518.338L513.398 517.923C508.334 522.191 488.735 540.263 484.983 544.646ZM555.814 480.409C560.52 474.4 598.511 428.053 598.697 426.131C598.701 426.091 598.68 426.052 598.672 426.012C581.627 438.937 561.052 456.064 544.457 470.023C544.734 471.669 545.265 478.278 545.632 478.903C548.975 479.385 552.503 479.837 555.814 480.409Z"/>
  <path d="M511.045 261.193C510.721 257.859 511.405 247.356 511.879 244.003C512.707 238.148 510.921 217.937 512.633 214.011C513.3 221.262 513.293 256.032 511.72 262.428L511.045 261.193Z"/>
  <path d="M731.168 512.442C732.623 511.811 751.205 511.452 752.246 511.968C748.267 513.316 733.555 513.561 728.751 513.419L731.168 512.442Z"/>
  <path d="M294.11 512.449C291.271 512.593 283.266 513.119 280.807 511.918C284.871 511.369 289.033 510.994 293.111 511.627L294.11 512.449Z"/>
  <path d="M512.421 780.449C512.475 785.065 512.606 789.887 512.466 794.484C512.022 797.762 511.874 801.072 512.024 804.376L511.93 804.49C511.161 803.618 511.566 789.413 511.587 787.261C511.783 784.981 512.061 782.709 512.421 780.449Z"/>
  <path d="M511.544 778.915C511.382 775.558 511.488 774.23 511.819 770.931C512.254 773.678 512.675 775.704 512.599 778.506L511.544 778.915Z"/>
  <path d="M511.544 778.915L512.599 778.506L512.421 780.449C512.061 782.709 511.783 784.981 511.587 787.261C511.426 784.958 511.536 781.331 511.544 778.915Z"/>
  <path d="M512.466 794.484C512.528 797.729 512.634 801.174 512.024 804.376C511.874 801.072 512.022 797.762 512.466 794.484Z"/>
  <path d="M511.185 174.44C511.414 175.841 511.412 176.426 512.037 177.699L512.969 177.453C513.531 182.834 513.907 188.232 514.098 193.638C512.607 193.226 512.588 193.155 511.243 192.343C510.194 190.919 510.364 189.948 510.301 188.161C510.521 183.583 510.816 179.009 511.185 174.44Z"/>
  <path d="M510.517 840.454C512.215 840.321 512.234 840.196 513.678 839.392C512.922 845.46 512.928 852.972 511.984 858.45L512.012 858.231L511.623 859.076C511.449 853.706 510.223 845.114 510.517 840.454Z"/>
  <path d="M236.654 512.54C242.322 511.079 247.605 510.441 253.423 509.976C252.373 511.212 251.359 512.403 250.268 513.603C245.738 513.042 241.208 512.818 236.654 512.54Z"/>
  <path d="M774.288 510.364C779.891 510.935 784.449 511.288 789.935 512.764C785.091 513.027 780.255 513.412 775.431 513.917L774.288 510.364Z"/>
  <path d="M511.185 174.44L511.911 165.705L512.14 165.527C512.548 169.586 512.554 173.648 512.969 177.453L512.037 177.699C511.412 176.426 511.414 175.841 511.185 174.44Z"/>
</svg>